<?xml version="1.0" encoding="UTF-8"?>
<svg id="Layer_1" xmlns="http://www.w3.org/2000/svg" version="1.1" viewBox="0 0 263.7 499.6">
  <!-- Generator: Adobe Illustrator 29.5.1, SVG Export Plug-In . SVG Version: 2.1.0 Build 141)  -->
  <defs>
    <style>
      .st0 {
        fill-rule: evenodd;
      }

      .st1 {
        fill: #f90000;
      }
    </style>
  </defs>
  <path class="st1" d="M245.1,455.5c-.8-.5-82.1-54.7-82.1-130.9s17.6-79.6,34.6-106.8c14-22.3,27.2-43.3,27.2-73.5s-8.4-49.5-23.9-62c-9.3,12.8-23.5,18.9-23.6,19,0,0,0,0,0,0,.6-.8,1.1-1.7,1.7-2.6,0-.1.2-.2.2-.3.5-.7,1-1.5,1.6-2.2,12.3-17.1,30.3-39.4,4.3-76.1l-21.9,15.4c11.4,13.3,14.5,25.1,14.3,35.8-5.5-1.3-11.4-1.9-17.7-1.9-31,0-60.9,19.3-82.2,53-24.2,38.3-37,94.2-37,161.5,0,100.5,74.7,153.2,106.9,171.2,27.7,15.5,55.7,24.1,76,24.1s16.1-2,21.3-4.8c7.9-4.3,11.8-11.3,11.8-11.3l-11.5-7.6Z"/>
  <path class="st0" d="M111.9,230.9s13.5,42.2,49.3,57.7c35.8,15.5,52.3-8.2,52.3-8.2l-16.2-7c-32.4-14-14.2-63.7-48.4-78.5-12.7-5.5-22,1.7-22,1.7,0,0-1.1-11.7-13.9-17.2-34.3-14.8-58,32.5-90.4,18.4l-16.2-7s-6,28.2,29.8,43.7c35.8,15.5,75.8-3.6,75.8-3.6Z"/>
</svg>